<?xml version="1.0" encoding="UTF-8" standalone="no"?>
<!-- Generator: Adobe Illustrator 21.0.0, SVG Export Plug-In . SVG Version: 6.00 Build 0)  -->

<svg
   version="1.1"
   id="YouTube_Icon"
   x="0px"
   y="0px"
   viewBox="0 0 1024 721"
   enable-background="new 0 0 1024 721"
   xml:space="preserve"
   sodipodi:docname="video_play_button.svg"
   inkscape:export-filename="C:\Users\u215245\Downloads\video_play_button-64x45.png"
   inkscape:export-xdpi="6"
   inkscape:export-ydpi="6"
   inkscape:version="1.1 (c68e22c387, 2021-05-23)"
   xmlns:inkscape="http://www.inkscape.org/namespaces/inkscape"
   xmlns:sodipodi="http://sodipodi.sourceforge.net/DTD/sodipodi-0.dtd"
   xmlns="http://www.w3.org/2000/svg"
   xmlns:svg="http://www.w3.org/2000/svg"><defs
   id="defs31" /><sodipodi:namedview
   id="namedview29"
   pagecolor="#ffffff"
   bordercolor="#666666"
   borderopacity="1.0"
   inkscape:pageshadow="2"
   inkscape:pageopacity="0.0"
   inkscape:pagecheckerboard="0"
   showgrid="false"
   inkscape:zoom="1.2857143"
   inkscape:cx="345.72222"
   inkscape:cy="360.5"
   inkscape:window-width="1858"
   inkscape:window-height="1177"
   inkscape:window-x="54"
   inkscape:window-y="-8"
   inkscape:window-maximized="1"
   inkscape:current-layer="YouTube_Icon" />


<g
   id="Lozenge"
   style="fill:#333333;fill-opacity:0.80000001;stroke:none"
   inkscape:export-filename="C:\Users\u215245\Downloads\My Stuff\BuoyantUnrealisticModule\static\video_play_button-48x34.png"
   inkscape:export-xdpi="4.5427976"
   inkscape:export-ydpi="4.5427976">
	<g
   id="g25"
   style="fill:#333333;fill-opacity:0.80000001;stroke:none">
		<path
   fill="#282928"
   d="m 1013,156.3 c 0,0 -10,-70.4 -40.6,-101.4 C 933.6,14.2 890,14 870.1,11.6 727.1,1.3 512.7,1.3 512.7,1.3 h -0.4 c 0,0 -214.4,0 -357.4,10.3 C 135,14 91.4,14.2 52.6,54.9 22,85.9 12,156.3 12,156.3 c 0,0 -10.2,82.6 -10.2,165.3 v 77.5 c 0,82.7 10.2,165.3 10.2,165.3 0,0 10,70.4 40.6,101.4 38.9,40.7 89.9,39.4 112.6,43.7 81.7,7.8 347.3,10.3 347.3,10.3 0,0 214.6,-0.3 357.6,-10.7 20,-2.4 63.5,-2.6 102.3,-43.3 30.6,-31 40.6,-101.4 40.6,-101.4 0,0 10.2,-82.7 10.2,-165.3 v -77.5 c 0,-82.7 -10.2,-165.3 -10.2,-165.3 z"
   id="path23"
   style="fill:#333333;fill-opacity:0.8;stroke:none"
   sodipodi:nodetypes="ccccccccsscccccccssc" />
	</g>
</g>
<path
   id="Triangle"
   fill="#ffffff"
   d="m 374.50035,504.05 276,-143 -276,-144 z"
   style="stroke:#ffffff;stroke-width:12;stroke-linejoin:round;stroke-miterlimit:4;stroke-dasharray:none;stroke-opacity:1"
   inkscape:export-filename="C:\Users\u215245\Downloads\My Stuff\BuoyantUnrealisticModule\static\video_play_button-48x34.png"
   inkscape:export-xdpi="4.5427976"
   inkscape:export-ydpi="4.5427976" /></svg>
